<svg xmlns="http://www.w3.org/2000/svg" viewBox="0 0 252.394 45.652"><defs><style>.cls-1{fill:#500000;}</style></defs><title>stars</title><g id="Layer_2" data-name="Layer 2"><g id="Layer_5" data-name="Layer 5"><g id="Layer_7" data-name="Layer 7"><g id="Star_-_Blue" data-name="Star - Blue"><polygon class="cls-1" points="24 0 31.417 15.027 48 17.438 36 29.135 38.833 45.652 24 37.854 9.167 45.652 12 29.135 0 17.438 16.583 15.027 24 0"/><polygon class="cls-1" points="75.098 0 82.515 15.027 99.098 17.438 87.098 29.135 89.931 45.652 75.098 37.854 60.265 45.652 63.098 29.135 51.098 17.438 67.681 15.027 75.098 0"/><polygon class="cls-1" points="126.197 0 133.614 15.027 150.197 17.438 138.197 29.135 141.03 45.652 126.197 37.854 111.364 45.652 114.197 29.135 102.197 17.438 118.78 15.027 126.197 0"/><polygon class="cls-1" points="177.295 0 184.712 15.027 201.295 17.438 189.295 29.135 192.128 45.652 177.295 37.854 162.462 45.652 165.295 29.135 153.295 17.438 169.878 15.027 177.295 0"/><polygon class="cls-1" points="228.394 0 235.811 15.027 252.394 17.438 240.394 29.135 243.227 45.652 228.394 37.854 213.561 45.652 216.394 29.135 204.394 17.438 220.977 15.027 228.394 0"/></g></g></g></g></svg>